<svg id="visual" viewBox="0 0 900 600" width="900" height="600" xmlns="http://www.w3.org/2000/svg" xmlns:xlink="http://www.w3.org/1999/xlink" version="1.1"><rect x="0" y="0" width="900" height="600" fill="#48c268"></rect><path d="M0 429L21.5 417.5C43 406 86 383 128.8 389.2C171.7 395.3 214.3 430.7 257.2 419.2C300 407.7 343 349.3 385.8 320.2C428.7 291 471.3 291 514.2 297C557 303 600 315 642.8 328.7C685.7 342.3 728.3 357.7 771.2 350.5C814 343.3 857 313.7 878.5 298.8L900 284L900 601L878.5 601C857 601 814 601 771.2 601C728.3 601 685.7 601 642.8 601C600 601 557 601 514.2 601C471.3 601 428.7 601 385.8 601C343 601 300 601 257.2 601C214.3 601 171.7 601 128.8 601C86 601 43 601 21.5 601L0 601Z" fill="#dce0de" stroke-linecap="round" stroke-linejoin="miter"></path></svg>